# Created by Kenney (www.kenney.nl)

mtllib walk_road.mtl

g mergedBlocks

v 0.5625 0 0.5
v 0.5625 0 -0.5
v 0.5 0 0.5625
v 0.5 0 -0.5625
v -0.5 0 0.5625
v -0.5 0 -0.5625
v -0.5625 0 0.5
v -0.5625 0 -0.5
v 0.5625 0.1 0.5
v 0.5 0.1 0.5625
v 0.5625 0.1 -0.5
v 0.5 0.1 -0.5625
v -0.5 0.1 -0.5625
v -0.5 0.1 0.5625
v -0.5625 0.1 -0.5
v -0.5625 0.1 0.5
v -0.4375 0 0.5
v -0.4375 0 -0.5
v -1.5 0 0.5625
v -1.5 0 -0.5625
v -1.5625 0 0.5
v -1.5625 0 -0.5
v -0.4375 0.1 0.5
v -0.4375 0.1 -0.5
v -1.5 0.1 -0.5625
v -1.5 0.1 0.5625
v -1.5625 0.1 -0.5
v -1.5625 0.1 0.5
v -0.4375 0 -1.5
v -0.5 0 -0.4375
v -0.5 0 -1.5625
v -1.5 0 -0.4375
v -1.5 0 -1.5625
v -1.5625 0 -1.5
v -0.5 0.1 -0.4375
v -0.4375 0.1 -1.5
v -0.5 0.1 -1.5625
v -1.5 0.1 -1.5625
v -1.5 0.1 -0.4375
v -1.5625 0.1 -1.5
v 0.5625 0 -1.5
v 0.5 0 -0.4375
v 0.5 0 -1.5625
v -0.5625 0 -1.5
v 0.5 0.1 -0.4375
v 0.5625 0.1 -1.5
v 0.5 0.1 -1.5625
v -0.5625 0.1 -1.5

vn 0 -1 0
vn 0 1 0
vn 0 0 1
vn 0.7071068 0 0.7071068
vn 1 0 0
vn 0.7071068 0 -0.7071068
vn 0 0 -1
vn -0.7071068 0 -0.7071068
vn -1 0 0
vn -0.7071068 0 0.7071068

vt -0.5625 -0.5
vt -0.5625 0.5
vt -0.5 -0.5625
vt -0.5 0.5625
vt 0.5 -0.5625
vt 0.5 0.5625
vt 0.5625 -0.5
vt 0.5625 0.5
vt 0.5 0
vt -0.5 0
vt 0.5 0.1
vt -0.5 0.1
vt 0.5625 0.1
vt 0.5625 0
vt -0.5625 0.1
vt -0.5625 0
vt 0.4375 -0.5
vt 0.4375 0.5
vt 1.5 -0.5625
vt 1.5 0.5625
vt 1.5625 -0.5
vt 1.5625 0.5
vt -1.5 0
vt -1.5 0.1
vt -0.4375 0.1
vt -0.4375 0
vt 0.4375 0.1
vt 0.4375 0
vt 1.5 0
vt 1.5 0.1
vt 1.5625 0
vt 1.5625 0.1
vt -1.5625 0
vt -1.5625 0.1
vt 0.4375 1.5
vt 0.5 0.4375
vt 0.5 1.5625
vt 1.5 0.4375
vt 1.5 1.5625
vt 1.5625 1.5
vt 0.5 -0.4375
vt 0.4375 -1.5
vt 0.5 -1.5625
vt 1.5 -1.5625
vt 1.5 -0.4375
vt 1.5625 -1.5
vt -0.5625 1.5
vt -0.5 0.4375
vt -0.5 1.5625
vt 0.5625 1.5
vt -0.5 -0.4375
vt -0.5625 -1.5
vt -0.5 -1.5625
vt 0.5625 -1.5

usemtl stoneLight(Clone)

f 3/3/1 2/2/1 1/1/1
f 2/2/1 3/3/1 4/4/1
f 4/4/1 3/3/1 5/5/1
f 4/4/1 5/5/1 6/6/1
f 6/6/1 5/5/1 7/7/1
f 6/6/1 7/7/1 8/8/1
f 11/1/2 10/4/2 9/2/2
f 10/4/2 11/1/2 12/3/2
f 10/4/2 12/3/2 13/5/2
f 10/4/2 13/5/2 14/6/2
f 14/6/2 13/5/2 15/7/2
f 14/6/2 15/7/2 16/8/2
f 10/11/3 5/10/3 3/9/3
f 5/10/3 10/11/3 14/12/3
f 10/11/4 1/14/4 9/13/4
f 1/14/4 10/11/4 3/9/4
f 9/12/5 2/9/5 11/11/5
f 2/9/5 9/12/5 1/10/5
f 11/15/6 4/10/6 12/12/6
f 4/10/6 11/15/6 2/16/6
f 13/11/7 4/10/7 6/9/7
f 4/10/7 13/11/7 12/12/7
f 8/14/8 13/11/8 6/9/8
f 13/11/8 8/14/8 15/13/8
f 7/9/9 15/12/9 8/10/9
f 15/12/9 7/9/9 16/11/9
f 14/12/10 7/16/10 5/10/10
f 7/16/10 14/12/10 16/15/10
f 5/5/1 18/18/1 17/17/1
f 18/18/1 5/5/1 6/6/1
f 6/6/1 5/5/1 19/19/1
f 6/6/1 19/19/1 20/20/1
f 20/20/1 19/19/1 21/21/1
f 20/20/1 21/21/1 22/22/1
f 24/17/2 14/6/2 23/18/2
f 14/6/2 24/17/2 13/5/2
f 14/6/2 13/5/2 25/19/2
f 14/6/2 25/19/2 26/20/2
f 26/20/2 25/19/2 27/21/2
f 26/20/2 27/21/2 28/22/2
f 14/12/3 19/23/3 5/10/3
f 19/23/3 14/12/3 26/24/3
f 14/12/4 17/26/4 23/25/4
f 17/26/4 14/12/4 5/10/4
f 23/12/5 18/9/5 24/11/5
f 18/9/5 23/12/5 17/10/5
f 24/27/6 6/9/6 13/11/6
f 6/9/6 24/27/6 18/28/6
f 25/30/7 6/9/7 20/29/7
f 6/9/7 25/30/7 13/11/7
f 22/31/8 25/30/8 20/29/8
f 25/30/8 22/31/8 27/32/8
f 21/9/9 27/12/9 22/10/9
f 27/12/9 21/9/9 28/11/9
f 26/24/10 21/33/10 19/23/10
f 21/33/10 26/24/10 28/34/10
f 30/36/1 29/35/1 18/18/1
f 29/35/1 30/36/1 31/37/1
f 31/37/1 30/36/1 32/38/1
f 31/37/1 32/38/1 33/39/1
f 33/39/1 32/38/1 22/22/1
f 33/39/1 22/22/1 34/40/1
f 36/42/2 35/41/2 24/17/2
f 35/41/2 36/42/2 37/43/2
f 35/41/2 37/43/2 38/44/2
f 35/41/2 38/44/2 39/45/2
f 39/45/2 38/44/2 40/46/2
f 39/45/2 40/46/2 27/21/2
f 35/12/3 32/23/3 30/10/3
f 32/23/3 35/12/3 39/24/3
f 35/12/4 18/26/4 24/25/4
f 18/26/4 35/12/4 30/10/4
f 24/11/5 29/29/5 36/30/5
f 29/29/5 24/11/5 18/9/5
f 36/27/6 31/9/6 37/11/6
f 31/9/6 36/27/6 29/28/6
f 38/30/7 31/9/7 33/29/7
f 31/9/7 38/30/7 37/11/7
f 34/31/8 38/30/8 33/29/8
f 38/30/8 34/31/8 40/32/8
f 22/10/9 40/24/9 34/23/9
f 40/24/9 22/10/9 27/12/9
f 39/24/10 22/33/10 32/23/10
f 22/33/10 39/24/10 27/34/10
f 42/48/1 41/47/1 2/2/1
f 41/47/1 42/48/1 43/49/1
f 43/49/1 42/48/1 30/36/1
f 43/49/1 30/36/1 31/37/1
f 31/37/1 30/36/1 8/8/1
f 31/37/1 8/8/1 44/50/1
f 46/52/2 45/51/2 11/1/2
f 45/51/2 46/52/2 47/53/2
f 45/51/2 47/53/2 37/43/2
f 45/51/2 37/43/2 35/41/2
f 35/41/2 37/43/2 48/54/2
f 35/41/2 48/54/2 15/7/2
f 45/11/3 30/10/3 42/9/3
f 30/10/3 45/11/3 35/12/3
f 45/11/4 2/14/4 11/13/4
f 2/14/4 45/11/4 42/9/4
f 11/11/5 41/29/5 46/30/5
f 41/29/5 11/11/5 2/9/5
f 46/15/6 43/10/6 47/12/6
f 43/10/6 46/15/6 41/16/6
f 37/11/7 43/10/7 31/9/7
f 43/10/7 37/11/7 47/12/7
f 44/14/8 37/11/8 31/9/8
f 37/11/8 44/14/8 48/13/8
f 8/10/9 48/24/9 44/23/9
f 48/24/9 8/10/9 15/12/9
f 35/12/10 8/16/10 30/10/10
f 8/16/10 35/12/10 15/15/10

